<!DOCTYPE svg PUBLIC "-//W3C//DTD SVG 1.1//EN" "http://www.w3.org/Graphics/SVG/1.1/DTD/svg11.dtd">
<!-- Uploaded to: SVG Repo, www.svgrepo.com, Transformed by: SVG Repo Mixer Tools -->
<svg fill="#b85c38" width="800px" height="800px" viewBox="0 0 100 100" version="1.0" xml:space="preserve" xmlns="http://www.w3.org/2000/svg" xmlns:xlink="http://www.w3.org/1999/xlink">
<g id="SVGRepo_bgCarrier" stroke-width="0"/>
<g id="SVGRepo_tracerCarrier" stroke-linecap="round" stroke-linejoin="round"/>
<g id="SVGRepo_iconCarrier"> <g id="_x31_"/> <g id="_x32_"/> <g id="_x33_"/> <g id="_x34_"/> <g id="_x35_"/> <g id="_x36_"> <path d="M32.1,31.6c-3,0-5.4-2.4-5.4-5.4c0-3,2.4-5.4,5.4-5.4s5.4,2.4,5.4,5.4C37.5,29.2,35.1,31.6,32.1,31.6z M32.1,24.9 c-0.8,0-1.4,0.6-1.4,1.4c0,0.8,0.6,1.4,1.4,1.4s1.4-0.6,1.4-1.4C33.5,25.5,32.8,24.9,32.1,24.9z M50,24c-3,0-5.4-2.4-5.4-5.4 c0-3,2.4-5.4,5.4-5.4s5.4,2.4,5.4,5.4C55.4,21.6,53,24,50,24z M50,17.3c-0.8,0-1.4,0.6-1.4,1.4c0,0.8,0.6,1.4,1.4,1.4 s1.4-0.6,1.4-1.4C51.4,17.9,50.8,17.3,50,17.3z M76.4,44.5c1.4-1.1,2.2-2.8,2.2-4.6c0-3.3-2.7-5.9-6.1-5.9h-6.8H40.9H27.4 c-3.4,0-6.1,2.6-6.1,5.9c0,1.8,0.8,3.5,2.2,4.6c-0.9,2.9-1.4,5.8-1.4,8.9c0,4.6,1.1,9.2,3.3,13.2l-2.7,15.6 c-0.2,1.1,0.1,2.3,0.9,3.2c0.7,0.9,1.8,1.4,3,1.4h5.7c1.9,0,3.5-1.3,3.8-3.2l1-5.4c4,2.1,8.4,3.3,13,3.3c4.6,0,8.9-1.1,12.8-3.1 l0.9,5.3c0.3,1.9,1.9,3.2,3.8,3.2h5.7c1.1,0,2.2-0.5,3-1.4c0.7-0.9,1-2,0.9-3.2l-2.7-15.3c2.2-4,3.5-8.6,3.5-13.5 C77.8,50.3,77.4,47.4,76.4,44.5z M63,38.1c-0.1,0.2-0.3,0.3-0.4,0.5c-1.8,1.9-5.2,3.4-8.1,3.5c-0.3,0-0.5,0-0.7,0.1 c-4.1,0.5-4.7,4.1-5.1,6.5c-0.5,3.1-0.9,4.7-4.3,5c-0.9,0.1-1.3-0.2-1.6-0.5c-0.1-0.1-0.2-0.3-0.3-0.4c0,0-0.1-0.1-0.1-0.2 c-0.1-0.1-0.1-0.2-0.2-0.3c0-0.1-0.1-0.2-0.1-0.2c0-0.1-0.1-0.2-0.1-0.4c0-0.1-0.1-0.2-0.1-0.3c0-0.1-0.1-0.3-0.1-0.4 c0-0.1,0-0.2-0.1-0.3c0-0.1-0.1-0.3-0.1-0.4c0-0.1,0-0.2-0.1-0.4c0-0.2,0-0.3-0.1-0.5c0-0.1,0-0.3,0-0.4c0-0.2,0-0.3,0-0.5 c0-0.1,0-0.3,0-0.4c0-0.2,0-0.4,0-0.6c0-0.2,0-0.3,0-0.5c0-0.2,0-0.4,0-0.6c0-0.2,0-0.3,0-0.5c0-0.2,0-0.4,0-0.6c0-0.2,0-0.4,0-0.5 c0-0.2,0-0.4,0.1-0.7c0-0.2,0-0.4,0-0.6c0-0.2,0-0.5,0.1-0.7c0-0.2,0-0.4,0.1-0.6c0-0.3,0.1-0.5,0.1-0.8c0-0.2,0-0.4,0.1-0.6 c0-0.3,0.1-0.6,0.1-0.9c0-0.2,0-0.3,0.1-0.5c0.1-0.5,0.2-0.9,0.2-1.4L63,38.1C63,38.1,63,38.1,63,38.1z M32.2,82.7h-5.5l2-11.4 c0.1,0.2,0.3,0.3,0.4,0.5c0.2,0.2,0.4,0.4,0.6,0.6c0.2,0.2,0.4,0.4,0.6,0.6c0.2,0.2,0.3,0.4,0.5,0.5c0.2,0.2,0.5,0.5,0.7,0.7 c0.1,0.1,0.3,0.3,0.4,0.4c0.3,0.3,0.6,0.5,1,0.8c0.1,0.1,0.2,0.1,0.2,0.2c0.1,0.1,0.1,0.1,0.2,0.2L32.2,82.7z M73.1,82.7h-5.5 l-1.2-6.8c1.7-1.3,3.3-2.7,4.7-4.4L73.1,82.7z M73.3,41.7c-0.5,0.2-0.9,0.6-1.2,1.1c-0.2,0.5-0.2,1.1,0,1.6c1.2,2.9,1.7,5.9,1.7,9 c0,4.1-1,7.9-2.8,11.3c-0.2,0.2-0.4,0.4-0.6,0.6c-1.8,3.2-4.3,5.9-7.4,8c-0.2,0.1-0.3,0.3-0.5,0.4c-3.7,2.3-8,3.7-12.6,3.7 c-4.8,0-9.4-1.4-13.3-4.1c-1.9-1.3-3.6-2.8-5.1-4.6c-0.1-0.1-0.1-0.1-0.2-0.2c-0.8-1-1.5-2.1-2.2-3.2c-2-3.6-3.1-7.7-3.1-11.9 c0-3.1,0.6-6.1,1.7-9c0.2-0.5,0.2-1.1,0-1.6c-0.2-0.5-0.7-0.9-1.2-1.1c-0.8-0.3-1.3-1-1.3-1.8c0-1,0.9-1.9,2.1-1.9h11 c0,0.2-0.1,0.5-0.1,0.7c0,0.2-0.1,0.5-0.1,0.7c-0.1,0.3-0.1,0.7-0.1,1c0,0.2-0.1,0.4-0.1,0.6c-0.1,0.4-0.1,0.8-0.1,1.1 c0,0.1,0,0.3,0,0.4c-0.1,0.5-0.1,1-0.1,1.5c0,0.1,0,0.2,0,0.3c0,0.4,0,0.7-0.1,1.1c0,0.2,0,0.3,0,0.5c0,0.3,0,0.6,0,0.9 c0,0.2,0,0.3,0,0.5c0,0.3,0,0.5,0,0.7c0,0.2,0,0.3,0,0.5c0,0.2,0,0.5,0,0.7c0,0.2,0,0.3,0.1,0.5c0,0.2,0.1,0.4,0.1,0.6 c0,0.2,0,0.3,0.1,0.5c0,0.2,0.1,0.4,0.1,0.6c0,0.1,0.1,0.3,0.1,0.4c0,0.2,0.1,0.4,0.1,0.5c0,0.1,0.1,0.3,0.1,0.4 c0.1,0.2,0.1,0.3,0.2,0.5c0,0.1,0.1,0.2,0.1,0.3c0.1,0.2,0.1,0.3,0.2,0.5c0,0.1,0.1,0.2,0.1,0.3c0.1,0.2,0.2,0.3,0.3,0.5 c0,0.1,0.1,0.2,0.1,0.2c0.1,0.2,0.3,0.4,0.5,0.6c0.1,0.2,0.3,0.3,0.5,0.5c0.1,0,0.1,0.1,0.2,0.1c0.1,0.1,0.2,0.2,0.3,0.3 c0.1,0.1,0.1,0.1,0.2,0.1c0.1,0.1,0.2,0.1,0.3,0.2c0.1,0,0.2,0.1,0.3,0.1c0.1,0,0.2,0.1,0.3,0.1c0.1,0,0.2,0.1,0.3,0.1 c0.1,0,0.2,0.1,0.3,0.1c0.1,0,0.2,0.1,0.3,0.1c0.1,0,0.2,0,0.3,0.1c0.1,0,0.2,0,0.3,0c0.1,0,0.2,0,0.4,0c0.1,0,0.2,0,0.3,0 c0,0,0,0,0,0c0.2,0,0.4,0,0.6,0c6.6-0.6,7.4-5.4,7.9-8.3c0.4-2.8,0.7-3.1,1.7-3.2c0.1,0,0.2,0,0.3,0c4-0.1,8.4-2.1,10.9-4.8 c0.2-0.2,0.4-0.5,0.6-0.7c0.1-0.1,0.1-0.2,0.2-0.2c0.1-0.2,0.2-0.3,0.3-0.5c0.1-0.1,0.1-0.2,0.2-0.3c0.1-0.2,0.2-0.3,0.3-0.5 c0-0.1,0.1-0.2,0.1-0.3c0.1-0.2,0.2-0.4,0.2-0.6c0,0,0-0.1,0-0.1h5.1c1.1,0,2.1,0.9,2.1,1.9C74.6,40.7,74.1,41.4,73.3,41.7z M81.8,34.1H70.2l2.5-5.6c0.4-0.8,0.6-1.7,0.6-2.6c0-3.5-2.9-6.4-6.4-6.4c-2.5,0-4.8,1.5-5.8,3.8l-4.8,10.8H18.3c-1.1,0-2,0.9-2,2 s0.9,2,2,2h39.4h9.5h14.6c1.1,0,2-0.9,2-2S82.9,34.1,81.8,34.1z M64.7,24.9c0.4-0.9,1.2-1.4,2.2-1.4c1.5,0,2.4,1.2,2.4,2.4 c0,0.3-0.1,0.6-0.2,1l-3.2,7.3h-5.2L64.7,24.9z"/> </g> <g id="_x37_"/> <g id="_x38_"/> <g id="_x39_"/> <g id="_x31_0"/> <g id="_x31_1"/> <g id="_x31_2"/> <g id="_x31_3"/> <g id="_x31_4"/> <g id="_x31_5"/> <g id="_x31_6"/> <g id="_x31_7"/> <g id="_x31_8"/> <g id="_x31_9"/> <g id="_x32_0"/> <g id="_x32_1"/> <g id="_x32_2"/> <g id="_x32_3"/> </g>
</svg>