<svg xmlns="http://www.w3.org/2000/svg" xmlns:xlink="http://www.w3.org/1999/xlink" version="1.1" width="256" height="256" viewBox="0 0 256 256" xml:space="preserve">
<g style="stroke: none; stroke-width: 0; stroke-dasharray: none; stroke-linecap: butt; stroke-linejoin: miter; stroke-miterlimit: 10; fill: none; fill-rule: nonzero; opacity: 1;" transform="translate(1.4065934065934016 1.4065934065934016) scale(2.81 2.81)">
	<path d="M 71.307 62.893 c 2.662 -0.551 5.112 -1.505 7.269 -2.892 c 4.694 -3.018 7.887 -7.883 8.135 -12.395 c 0.139 -2.54 -0.693 -4.675 -2.343 -6.012 c -1.563 -1.267 -3.819 -1.885 -6.589 -1.844 c 0.09 -0.969 0.168 -1.942 0.219 -2.923 c 0.072 -0.341 0.121 -0.688 0.121 -1.046 c 0 -6.2 -11.154 -10.018 -24.373 -11.274 c -0.504 1.299 -0.945 2.578 -1.255 3.88 c 14.235 1.175 21.628 5.116 21.628 7.394 c 0 0.085 -0.01 0.172 -0.031 0.261 l -0.012 -0.002 c -0.119 0.475 -0.491 0.982 -1.101 1.501 c -0.033 0.028 -0.071 0.056 -0.105 0.084 c -0.084 0.068 -0.169 0.137 -0.261 0.206 c -0.121 0.09 -0.25 0.18 -0.385 0.271 c -0.014 0.01 -0.027 0.019 -0.042 0.029 c -0.444 0.294 -0.969 0.593 -1.565 0.89 c -0.057 0.029 -0.111 0.057 -0.17 0.086 c -0.082 0.04 -0.172 0.08 -0.257 0.12 c -4.387 2.049 -12.294 3.91 -22.946 4.237 c -0.065 0.002 -0.131 0.003 -0.196 0.005 c -0.47 0.014 -0.943 0.025 -1.423 0.032 c -0.569 0.009 -1.144 0.014 -1.729 0.014 c -0.585 0 -1.161 -0.005 -1.729 -0.014 c -0.481 -0.008 -0.956 -0.019 -1.426 -0.033 c -0.064 -0.002 -0.129 -0.003 -0.193 -0.005 c -10.663 -0.328 -18.575 -2.192 -22.96 -4.244 c -0.079 -0.037 -0.163 -0.074 -0.24 -0.112 c -0.064 -0.031 -0.122 -0.062 -0.184 -0.093 c -0.163 -0.081 -0.325 -0.162 -0.476 -0.244 c -0.004 -0.002 -0.007 -0.004 -0.011 -0.006 c -0.393 -0.212 -0.748 -0.423 -1.065 -0.633 c -0.019 -0.013 -0.036 -0.025 -0.054 -0.038 c -0.131 -0.088 -0.256 -0.176 -0.374 -0.263 c -0.095 -0.071 -0.183 -0.142 -0.269 -0.212 c -0.032 -0.026 -0.066 -0.052 -0.097 -0.078 c -0.61 -0.519 -0.983 -1.027 -1.102 -1.502 l -0.013 0.002 c -0.02 -0.089 -0.031 -0.176 -0.031 -0.261 c 0 -2.045 5.963 -5.428 17.479 -6.95 c 0 -1.35 0.136 -2.714 0.383 -4.053 C 19.446 26.26 9.674 29.977 9.674 35.78 c 0 0.357 0.049 0.704 0.121 1.045 c 0.518 9.895 2.984 19.222 7.146 26.983 c 0.332 0.62 0.697 1.218 1.076 1.805 C 8.489 68.121 3.274 71.88 3.274 76.333 C 3.274 85.306 23.71 90 43.897 90 s 40.622 -4.694 40.622 -13.667 c 0 -4.453 -5.214 -8.212 -14.742 -10.72 c 0.379 -0.587 0.743 -1.185 1.075 -1.805 C 71.012 63.511 71.152 63.195 71.307 62.893 z M 75.418 52.394 c 0.958 -2.789 1.667 -5.691 2.112 -8.647 c 1.938 -0.071 3.463 0.26 4.318 0.955 l 0.001 0 c 0.845 0.685 0.906 1.977 0.867 2.686 c -0.147 2.682 -2.153 6.581 -6.304 9.249 c -0.914 0.589 -1.897 1.086 -2.939 1.492 c 0.733 -1.842 1.373 -3.752 1.936 -5.711 C 75.413 52.409 75.415 52.402 75.418 52.394 z M 14.276 41.989 c 2.552 1.496 6.01 2.67 9.937 3.548 c 0.03 0.007 0.061 0.013 0.091 0.02 c 0.647 0.144 1.306 0.279 1.976 0.406 c 0.273 0.052 0.544 0.105 0.82 0.155 c 0.231 0.041 0.464 0.08 0.697 0.119 c 0.414 0.07 0.831 0.137 1.253 0.202 c 0.15 0.023 0.298 0.046 0.449 0.068 c 3.216 0.473 6.633 0.78 10.105 0.919 c 0.094 0.004 0.187 0.007 0.28 0.01 c 0.549 0.021 1.098 0.037 1.649 0.049 c 0.148 0.003 0.296 0.007 0.444 0.01 c 0.639 0.011 1.279 0.019 1.919 0.019 c 0.641 0 1.282 -0.008 1.923 -0.019 c 0.144 -0.003 0.288 -0.006 0.432 -0.01 c 0.553 -0.012 1.106 -0.028 1.657 -0.049 c 0.093 -0.004 0.186 -0.007 0.279 -0.01 c 3.476 -0.139 6.897 -0.447 10.116 -0.92 c 0.141 -0.021 0.281 -0.043 0.422 -0.064 c 0.433 -0.066 0.861 -0.135 1.286 -0.207 c 0.225 -0.038 0.45 -0.075 0.672 -0.115 c 0.298 -0.053 0.59 -0.11 0.883 -0.167 c 0.641 -0.122 1.271 -0.252 1.891 -0.389 c 0.044 -0.01 0.089 -0.019 0.132 -0.029 c 3.923 -0.878 7.378 -2.051 9.928 -3.545 c -0.403 3.068 -1.021 6.042 -1.821 8.901 c -0.028 0.082 -0.05 0.167 -0.078 0.249 l -0.032 0.101 c -0.914 3.189 -2.07 6.224 -3.437 9.02 l -0.397 0.812 c -0.144 0.281 -0.278 0.57 -0.426 0.846 c -2.978 5.554 -8.226 9.593 -14.262 11.174 c -0.05 0.013 -0.101 0.024 -0.151 0.037 c -0.375 0.096 -0.754 0.18 -1.135 0.256 c -0.114 0.023 -0.229 0.045 -0.344 0.066 c -0.333 0.062 -0.669 0.114 -1.006 0.16 c -0.122 0.017 -0.243 0.036 -0.365 0.051 c -0.445 0.054 -0.893 0.098 -1.343 0.125 c -3.181 0.19 -6.464 0.19 -9.647 0 c -0.451 -0.027 -0.898 -0.071 -1.344 -0.125 c -0.122 -0.015 -0.242 -0.034 -0.363 -0.051 c -0.338 -0.047 -0.674 -0.099 -1.008 -0.161 c -0.114 -0.021 -0.228 -0.043 -0.342 -0.066 c -0.382 -0.077 -0.762 -0.161 -1.138 -0.257 c -0.049 -0.012 -0.098 -0.023 -0.147 -0.036 c -6.037 -1.582 -11.285 -5.62 -14.264 -11.175 C 17.339 56.085 15.233 49.279 14.276 41.989 z M 80.519 76.333 c 0 3.941 -14.267 9.667 -36.622 9.667 c -22.356 0 -36.622 -5.726 -36.622 -9.667 c 0 -2.021 4.197 -5.101 13.381 -7.263 c 3.861 4.258 9.03 7.15 14.655 8.254 c 0.109 0.021 0.218 0.04 0.327 0.06 c 0.407 0.075 0.815 0.14 1.226 0.195 c 0.137 0.019 0.274 0.039 0.412 0.055 c 0.517 0.062 1.035 0.114 1.557 0.145 c 1.671 0.101 3.375 0.151 5.063 0.151 c 1.69 0 3.393 -0.051 5.064 -0.151 c 0.522 -0.031 1.04 -0.083 1.557 -0.145 c 0.138 -0.017 0.275 -0.037 0.412 -0.056 c 0.41 -0.056 0.818 -0.12 1.223 -0.195 c 0.11 -0.02 0.221 -0.039 0.331 -0.061 c 5.624 -1.104 10.793 -3.996 14.653 -8.254 C 76.322 71.232 80.519 74.313 80.519 76.333 z" style="stroke: none; stroke-width: 1; stroke-dasharray: none; stroke-linecap: butt; stroke-linejoin: miter; stroke-miterlimit: 10; fill: #b85c38; fill-rule: nonzero; opacity: 1;" transform=" matrix(1 0 0 1 0 0) " stroke-linecap="round"/>
	<path d="M 39.61 39.123 c -1.176 -3.394 -1.163 -6.529 -0.557 -9.573 c 0.599 -3.046 1.734 -6.016 3.015 -8.995 C 44.907 14.282 46.138 4.781 39.929 0 c 2.31 6.653 0.107 12.499 -2.446 18.565 C 34.634 24.834 33.401 34.342 39.61 39.123 z" style="stroke: none; stroke-width: 1; stroke-dasharray: none; stroke-linecap: butt; stroke-linejoin: miter; stroke-miterlimit: 10; fill: #b85c38; fill-rule: nonzero; opacity: 1;" transform=" matrix(1 0 0 1 0 0) " stroke-linecap="round"/>
	<path d="M 48.485 35.871 c -1.349 -5.351 0.459 -9.471 2.421 -14.219 c 2.259 -4.94 3.065 -12.747 -2.173 -16.207 c 1.369 5.344 -0.441 9.475 -2.412 14.217 C 44.053 24.596 43.247 32.412 48.485 35.871 z" style="stroke: none; stroke-width: 1; stroke-dasharray: none; stroke-linecap: butt; stroke-linejoin: miter; stroke-miterlimit: 10; fill: #b85c38; fill-rule: nonzero; opacity: 1;" transform=" matrix(1 0 0 1 0 0) " stroke-linecap="round"/>
</g>
</svg>