<!DOCTYPE svg PUBLIC "-//W3C//DTD SVG 1.1//EN" "http://www.w3.org/Graphics/SVG/1.1/DTD/svg11.dtd">
<!-- Uploaded to: SVG Repo, www.svgrepo.com, Transformed by: SVG Repo Mixer Tools -->
<svg fill="#b85c38" width="800px" height="800px" viewBox="0 0 24 24" id="copy-3" data-name="Layer 1" xmlns="http://www.w3.org/2000/svg" class="icon line">
<g id="SVGRepo_bgCarrier" stroke-width="0"/>
<g id="SVGRepo_tracerCarrier" stroke-linecap="round" stroke-linejoin="round"/>
<g id="SVGRepo_iconCarrier">
<path id="primary" d="M15,7h3a1,1,0,0,1,1,1V20a1,1,0,0,1-1,1H8a1,1,0,0,1-1-1V17" style="fill: none; stroke: #b85c38; stroke-linecap: round; stroke-linejoin: round; stroke-width: 1.5;"/>
<path id="primary-2" data-name="primary" d="M14,3H4A1,1,0,0,0,3,4V16a1,1,0,0,0,1,1H14a1,1,0,0,0,1-1V4A1,1,0,0,0,14,3ZM7,4A1,1,0,0,0,8,5h2a1,1,0,0,0,1-1V3H7Z" style="fill: none; stroke: #b85c38; stroke-linecap: round; stroke-linejoin: round; stroke-width: 1.5;"/>
</g>
</svg>