<svg xmlns="http://www.w3.org/2000/svg" xmlns:xlink="http://www.w3.org/1999/xlink" version="1.1" width="256" height="256" viewBox="0 0 256 256" xml:space="preserve">
<g style="stroke: none; stroke-width: 0; stroke-dasharray: none; stroke-linecap: butt; stroke-linejoin: miter; stroke-miterlimit: 10; fill: none; fill-rule: nonzero; opacity: 1;" transform="translate(1.4065934065934016 1.4065934065934016) scale(2.81 2.81)">
	<circle cx="45" cy="45" r="45" style="stroke: none; stroke-width: 1; stroke-dasharray: none; stroke-linecap: butt; stroke-linejoin: miter; stroke-miterlimit: 10; fill: #b85c38; fill-rule: nonzero; opacity: 1;" transform="  matrix(1 0 0 1 0 0) "/>
	<path d="M 19.703 58.131 h 12.29 c 0.492 1.717 1.072 3.407 1.764 5.058 c 0.353 0.844 1.171 1.352 2.032 1.352 c 0.284 0 0.572 -0.055 0.85 -0.172 c 1.122 -0.47 1.65 -1.761 1.18 -2.882 c -0.461 -1.1 -0.863 -2.221 -1.226 -3.355 h 11.759 c 1.216 0 2.202 -0.986 2.202 -2.202 s -0.986 -2.202 -2.202 -2.202 H 35.441 c -0.561 -2.776 -0.847 -5.63 -0.847 -8.545 c 0 -2.912 0.3 -5.773 0.86 -8.546 h 18.946 c 0.56 2.772 0.86 5.634 0.86 8.546 c 0 1.216 0.986 2.202 2.202 2.202 c 1.216 0 2.202 -0.986 2.202 -2.202 c 0 -2.902 -0.272 -5.761 -0.781 -8.546 h 13.091 c 0.553 1.766 0.945 3.607 1.147 5.514 c 0.129 1.209 1.212 2.088 2.423 1.958 c 1.209 -0.129 2.086 -1.213 1.958 -2.423 c -1.772 -16.682 -15.776 -29.262 -32.575 -29.262 c -13.949 0 -25.882 8.767 -30.599 21.077 c -0.032 0.069 -0.059 0.14 -0.084 0.212 c -1.34 3.572 -2.077 7.436 -2.077 11.47 c 0 3.909 0.709 7.765 2.051 11.386 c 0.034 0.11 0.073 0.217 0.122 0.319 c 1.259 3.293 3.041 6.386 5.308 9.134 c 0.436 0.528 1.065 0.8 1.7 0.8 c 0.494 0 0.99 -0.165 1.401 -0.504 c 0.938 -0.774 1.071 -2.163 0.297 -3.101 C 21.745 61.64 20.627 59.933 19.703 58.131 z M 30.964 53.726 H 17.895 c -0.868 -2.747 -1.323 -5.63 -1.323 -8.545 c 0 -2.977 0.464 -5.848 1.319 -8.546 h 13.08 c -0.508 2.785 -0.781 5.644 -0.781 8.546 C 30.189 48.088 30.456 50.94 30.964 53.726 z M 36.589 32.23 c 1.739 -5.46 4.57 -10.422 8.337 -14.475 c 3.767 4.053 6.598 9.015 8.337 14.475 H 36.589 z M 70.177 32.23 H 57.856 c -1.563 -5.477 -4.112 -10.545 -7.515 -14.889 C 58.979 19.002 66.258 24.565 70.177 32.23 z M 39.503 17.352 c -3.399 4.342 -5.944 9.405 -7.506 14.878 H 19.715 C 23.631 24.638 30.871 19.031 39.503 17.352 z" style="stroke: none; stroke-width: 1; stroke-dasharray: none; stroke-linecap: butt; stroke-linejoin: miter; stroke-miterlimit: 10; fill: rgb(255,255,255); fill-rule: nonzero; opacity: 1;" transform=" matrix(1 0 0 1 0 0) " stroke-linecap="round"/>
	<path d="M 77.62 50.708 c -0.162 -0.163 -0.392 -0.242 -0.62 -0.21 l -18.663 2.536 c -0.276 0.037 -0.507 0.228 -0.596 0.491 c -0.09 0.264 -0.022 0.556 0.174 0.753 l 2.756 2.777 c 0.153 0.153 0.236 0.358 0.234 0.575 c -0.001 0.213 -0.09 0.421 -0.243 0.571 C 49.337 69.289 38.314 73.709 27.9 71.333 c -0.342 -0.075 -0.694 0.099 -0.836 0.422 c -0.141 0.323 -0.033 0.701 0.258 0.9 c 4.75 3.252 10.512 4.924 16.864 4.924 c 1.493 0 3.019 -0.092 4.571 -0.279 c 8.207 -0.984 16.47 -4.589 21.567 -9.408 c 0.315 -0.299 0.822 -0.291 1.127 0.018 l 2.459 2.477 c 0.196 0.198 0.488 0.267 0.752 0.18 c 0.264 -0.087 0.456 -0.317 0.496 -0.593 l 2.668 -18.644 C 77.858 51.101 77.782 50.872 77.62 50.708 z" style="stroke: none; stroke-width: 1; stroke-dasharray: none; stroke-linecap: butt; stroke-linejoin: miter; stroke-miterlimit: 10; fill: rgb(255,255,255); fill-rule: nonzero; opacity: 1;" transform=" matrix(1 0 0 1 0 0) " stroke-linecap="round"/>
</g>
</svg>